<svg width="200" height="50" viewBox="0 0 200 50" fill="none" xmlns="http://www.w3.org/2000/svg">
<path d="M27.6395 39.2619C25.1971 39.2619 22.9098 38.9905 20.8163 38.4478C18.684 37.905 16.7844 37.0133 15.1949 35.8503C13.5667 34.6873 12.2873 33.1753 11.3956 31.392C10.4652 29.6474 10 27.5152 10 25.1503C10 23.5608 10.2326 22.0877 10.6203 20.7695C11.0467 19.4514 11.667 18.2496 12.4424 17.2029C13.2177 16.1561 14.1869 15.2257 15.2725 14.4116C16.358 13.6362 17.5598 13.0159 18.8391 12.512C20.1185 12.008 21.5141 11.6591 22.9873 11.3877C24.4605 11.1551 26.0112 11 27.5619 11C28.7637 11 29.888 11.0775 30.896 11.1938C31.9427 11.3101 32.9507 11.504 33.8811 11.6978C34.8115 11.9304 35.742 12.2018 36.6336 12.512C37.5253 12.8221 38.417 13.171 39.3086 13.5199L40.0065 13.8301V19.4902L38.3007 18.3659C37.6416 17.9395 36.9438 17.5518 36.2072 17.2029C35.4706 16.854 34.6952 16.5051 33.8423 16.2337C32.9894 15.9623 32.0978 15.7297 31.0898 15.5746C30.1206 15.4196 29.0739 15.342 27.9496 15.342C25.6623 15.342 23.6076 15.5746 21.9018 16.0786C20.2348 16.5438 18.8779 17.2029 17.7924 18.0558C16.7456 18.8699 15.9703 19.8779 15.4275 21.0797C14.8848 22.2815 14.6134 23.6771 14.6134 25.1891C14.6134 26.6235 14.8848 27.9416 15.3888 29.1047C15.8927 30.2677 16.6681 31.2757 17.7148 32.1286C18.8003 32.9815 20.1572 33.6793 21.7855 34.1833C23.4525 34.6873 25.4684 34.9586 27.7558 34.9586C28.6862 34.9586 29.5779 34.9199 30.4695 34.8423C31.3612 34.7648 32.2141 34.6873 33.0282 34.571C33.8423 34.4547 34.5402 34.3384 35.1992 34.1833C35.4706 34.1445 35.742 34.067 36.0133 33.9894V28.4844H25.9337V24.0261H40.7043V37.0133L39.9289 37.2847C38.9985 37.5949 38.0681 37.905 37.1376 38.1376C36.2072 38.409 35.1992 38.6028 34.1913 38.7579C33.1833 38.913 32.1365 39.0681 31.051 39.1456C29.9655 39.2231 28.8413 39.2619 27.6395 39.2619Z" fill="black"/>
<path d="M62.8021 39.2619C60.476 39.2619 58.2662 38.9905 56.2503 38.4478C54.1956 37.905 52.3347 37.0521 50.8228 35.8891C49.272 34.726 47.9927 33.2141 47.101 31.4308C46.2094 29.6474 45.7441 27.5152 45.7441 25.1116C45.7441 23.5221 45.938 22.0101 46.3644 20.692C46.7909 19.3739 47.3724 18.1721 48.109 17.0866C48.8456 16.0398 49.776 15.1094 50.8228 14.3341C51.8695 13.5587 53.0325 12.9384 54.3119 12.4344C55.5525 11.9304 56.9093 11.5815 58.3438 11.3489C59.7782 11.1163 61.2514 11 62.8021 11C65.1282 11 67.2992 11.2714 69.3151 11.8141C71.3698 12.3569 73.1919 13.2098 74.7426 14.3728C76.2934 15.5359 77.5339 17.0478 78.4256 18.8311C79.3173 20.6145 79.7825 22.7467 79.7825 25.1503C79.7825 27.5539 79.3173 29.6862 78.4256 31.4695C77.5339 33.2528 76.2934 34.7648 74.7426 35.9278C73.2307 37.0909 71.4086 37.9438 69.3151 38.4865C67.2992 38.9905 65.0894 39.2619 62.8021 39.2619ZM62.8021 15.3808C60.7086 15.3808 58.8477 15.6134 57.2582 16.0786C55.7075 16.5051 54.4282 17.1641 53.4202 17.9782C52.4122 18.7924 51.6756 19.7616 51.1717 20.9634C50.6677 22.1652 50.3963 23.5996 50.3963 25.1503C50.3963 26.7398 50.6677 28.1742 51.1717 29.376C51.6756 30.5779 52.4122 31.5471 53.4202 32.3612C54.4282 33.1753 55.7075 33.8344 57.2582 34.2608C58.8477 34.726 60.7086 34.9199 62.8021 34.9199C64.8955 34.9199 66.7564 34.6873 68.3459 34.2608C69.8579 33.8344 71.1372 33.1753 72.1452 32.3612C73.1144 31.5471 73.851 30.5391 74.3549 29.376C74.8589 28.1742 75.1303 26.7398 75.1303 25.1503C75.1303 23.5608 74.8589 22.1264 74.3549 20.9246C73.851 19.7616 73.1144 18.7536 72.1452 17.9395C71.1372 17.1253 69.8579 16.4663 68.3459 16.0398C66.7564 15.6134 64.8955 15.3808 62.8021 15.3808Z" fill="black"/>
<path d="M97.0343 39.2619C94.8245 39.2619 92.7698 39.1068 90.9477 38.7579C89.1256 38.4477 87.381 37.9825 85.7528 37.4398L84.9774 37.1684V31.5083L86.722 32.555C88.2339 33.4467 89.8622 34.1057 91.568 34.4159C93.3125 34.7648 95.1734 34.9199 97.1118 34.9199C98.4687 34.9199 99.748 34.8423 100.911 34.6872C102.035 34.5322 102.966 34.2996 103.78 33.9507C104.478 33.6405 105.02 33.2916 105.408 32.8264C105.718 32.4387 105.873 31.9735 105.873 31.392C105.873 30.9655 105.757 30.5778 105.524 30.2677C105.214 29.88 104.788 29.5311 104.284 29.1822C103.702 28.8333 102.966 28.5231 102.152 28.2518C101.26 27.9416 100.33 27.6702 99.3603 27.4376C98.3524 27.1663 97.3444 26.9336 96.2589 26.701C95.1734 26.4297 94.0879 26.1583 93.0799 25.8869C92.0332 25.5768 91.0252 25.2278 90.0948 24.8789C89.1256 24.4913 88.2339 23.9873 87.4973 23.4445C86.6832 22.863 86.0629 22.1652 85.5977 21.4286C85.0937 20.6145 84.8223 19.6453 84.8223 18.5985C84.8223 17.5905 85.0162 16.6601 85.4038 15.846C85.7915 15.0706 86.3343 14.3728 86.9933 13.7913C87.6136 13.2485 88.389 12.7833 89.2031 12.4344C90.0172 12.0855 90.8701 11.8141 91.8006 11.6203C92.6922 11.4264 93.6227 11.2714 94.5531 11.1938C95.4835 11.1163 96.414 11.0775 97.3444 11.0775C98.3524 11.0775 99.3216 11.1163 100.213 11.1938C101.105 11.2714 101.958 11.3877 102.811 11.5427C103.625 11.6978 104.439 11.8529 105.253 12.0467C106.028 12.2406 106.804 12.4344 107.618 12.6282L108.471 12.8608V18.2496L106.804 17.4355C106.339 17.2029 105.835 16.9703 105.214 16.7376C104.672 16.505 104.013 16.2724 103.237 16.0786C102.501 15.8848 101.648 15.7297 100.678 15.5746C99.748 15.4583 98.6625 15.3808 97.5382 15.3808C96.1426 15.3808 94.8632 15.4583 93.7777 15.6134C92.731 15.7684 91.8781 16.0011 91.1803 16.3112C90.56 16.5826 90.0948 16.9315 89.8234 17.3192C89.552 17.6681 89.4357 18.0558 89.4357 18.5597C89.4357 18.9087 89.552 19.2188 89.7459 19.4514C90.056 19.8003 90.4825 20.1492 90.9864 20.4206C91.6067 20.7695 92.3433 21.0409 93.1575 21.3123C94.0491 21.6224 94.9796 21.855 95.9488 22.1264C96.9567 22.3978 98.0035 22.6692 99.0502 22.9018C100.136 23.1731 101.221 23.4833 102.229 23.7934C103.276 24.1036 104.284 24.4913 105.214 24.8789C106.184 25.3054 107.075 25.8094 107.812 26.3521C108.587 26.9336 109.246 27.6315 109.711 28.4068C110.215 29.2597 110.487 30.2289 110.487 31.2757C110.487 32.3999 110.254 33.3691 109.828 34.2608C109.401 35.1137 108.82 35.8115 108.122 36.4318C107.424 37.0133 106.61 37.4785 105.718 37.8662C104.865 38.2151 103.896 38.5253 102.927 38.7191C101.958 38.913 100.95 39.068 99.9419 39.1456C98.9727 39.2231 98.0035 39.2619 97.0343 39.2619Z" fill="black"/>
<path d="M140.648 38.7966L140.571 37.7499C140.454 36.5481 140.183 35.4625 139.679 34.4933C139.175 33.5241 138.555 32.6325 137.818 31.8959C137.043 31.1205 136.151 30.4615 135.143 29.88C134.096 29.2984 133.011 28.8332 131.848 28.4455C130.685 28.0579 129.444 27.7865 128.204 27.5926C126.924 27.3988 125.684 27.3213 124.443 27.3213H121.729V38.7966H117.116V11.5039H121.729V23.018H123.823C125.063 23.018 126.265 22.9017 127.506 22.6691C128.708 22.4365 129.871 22.1263 130.995 21.6999C132.08 21.2734 133.127 20.7695 134.058 20.1492C134.988 19.5677 135.802 18.8311 136.5 18.0557C137.198 17.2803 137.779 16.4274 138.206 15.497C138.632 14.6053 138.904 13.5974 139.02 12.5506L139.136 11.5039H143.788L143.672 12.7833C143.556 14.2177 143.207 15.5358 142.703 16.7376C142.199 17.9006 141.579 18.9474 140.842 19.8778C140.105 20.8082 139.291 21.6224 138.361 22.359C137.469 23.0568 136.578 23.6383 135.647 24.1423C135.221 24.3749 134.794 24.6075 134.368 24.8013C135.066 25.0339 135.763 25.3053 136.461 25.6542C137.508 26.1195 138.516 26.7397 139.485 27.4376C140.493 28.1742 141.385 29.0271 142.199 29.9963C143.013 30.9655 143.672 32.0897 144.215 33.3303C144.758 34.6097 145.107 36.0441 145.223 37.5948L145.339 38.8354H140.648V38.7966Z" fill="black"/>
<path d="M162.94 39.223C160.575 39.223 158.404 39.068 156.427 38.7578C154.411 38.4477 152.666 38.0212 151.154 37.4397L150.379 37.1683V31.9734L152.007 32.6712C152.744 32.9814 153.519 33.2915 154.333 33.5629C155.109 33.8343 155.962 34.0669 156.853 34.2607C157.745 34.4546 158.714 34.6097 159.722 34.726C160.73 34.8423 161.854 34.881 163.056 34.881C164.723 34.881 166.274 34.726 167.708 34.4158C169.104 34.1057 170.345 33.6792 171.391 33.0977C172.36 32.5549 173.136 31.8571 173.717 31.0818C174.26 30.3452 174.493 29.4923 174.493 28.5231V26.7397C174.415 26.8173 174.338 26.856 174.26 26.9336C173.368 27.7089 172.322 28.4068 171.236 28.9883C170.151 29.5698 168.91 30.0738 167.631 30.4227C166.313 30.7716 164.917 30.9655 163.483 30.9655C161.854 30.9655 160.42 30.8104 159.141 30.5002C157.861 30.1901 156.737 29.7636 155.768 29.2209C154.799 28.6781 153.946 27.9803 153.248 27.205C152.589 26.4296 152.007 25.5767 151.581 24.685C151.193 23.7934 150.883 22.8629 150.689 21.8937C150.495 20.9633 150.418 19.9553 150.418 18.9861V11.5039H155.07V18.4434C155.07 19.7227 155.225 20.8858 155.535 21.8937C155.807 22.8629 156.272 23.6771 156.892 24.3361C157.512 24.9952 158.365 25.5379 159.451 25.9256C160.575 26.3133 161.971 26.5071 163.676 26.5071C164.956 26.5071 166.158 26.3521 167.204 26.0031C168.29 25.6542 169.259 25.189 170.151 24.6075C171.042 24.026 171.895 23.3282 172.593 22.5528C173.252 21.855 173.872 21.0796 174.415 20.3042V11.5039H179.067V28.4843C179.067 30.3452 178.602 31.9734 177.749 33.3691C176.896 34.726 175.695 35.8502 174.221 36.7031C172.787 37.556 171.081 38.1763 169.143 38.6028C167.204 38.9904 165.15 39.223 162.94 39.223Z" fill="black"/>
<path d="M190 24.2975C190 25.8095 188.759 27.05 187.247 27.05C185.736 27.05 184.534 25.8095 184.534 24.2975C184.534 22.7855 185.774 21.5837 187.247 21.5837C188.759 21.5837 190 22.7855 190 24.2975Z" fill="#0062FF"/>
<path d="M190 35.23C190 36.742 188.759 37.9825 187.247 37.9825C185.736 37.9825 184.534 36.742 184.534 35.23C184.534 33.718 185.774 32.5162 187.247 32.5162C188.759 32.5162 190 33.718 190 35.23Z" fill="#0062FF"/>
</svg>
