<svg xmlns="http://www.w3.org/2000/svg" xmlns:xlink="http://www.w3.org/1999/xlink" preserveAspectRatio="xMidYMid" viewBox="35 35 30 30"><g transform="rotate(0 50 50)">  <rect x="50" y="35" rx="1" ry="0.5" width="2" height="6" fill="#797979">    <animate attributeName="opacity" values="1;0" keyTimes="0;1" dur="1s" begin="-0.8899676375404532s" repeatCount="indefinite"></animate>  </rect></g><g transform="rotate(30 50 50)">  <rect x="50" y="35" rx="1" ry="0.5" width="2" height="6" fill="#797979">    <animate attributeName="opacity" values="1;0" keyTimes="0;1" dur="1s" begin="-0.8090614886731392s" repeatCount="indefinite"></animate>  </rect></g><g transform="rotate(60 50 50)">  <rect x="50" y="35" rx="1" ry="0.5" width="2" height="6" fill="#797979">    <animate attributeName="opacity" values="1;0" keyTimes="0;1" dur="1s" begin="-0.7281553398058253s" repeatCount="indefinite"></animate>  </rect></g><g transform="rotate(90 50 50)">  <rect x="50" y="35" rx="1" ry="0.5" width="2" height="6" fill="#797979">    <animate attributeName="opacity" values="1;0" keyTimes="0;1" dur="1s" begin="-0.6472491909385114s" repeatCount="indefinite"></animate>  </rect></g><g transform="rotate(120 50 50)">  <rect x="50" y="35" rx="1" ry="0.5" width="2" height="6" fill="#797979">    <animate attributeName="opacity" values="1;0" keyTimes="0;1" dur="1s" begin="-0.5663430420711975s" repeatCount="indefinite"></animate>  </rect></g><g transform="rotate(150 50 50)">  <rect x="50" y="35" rx="1" ry="0.5" width="2" height="6" fill="#797979">    <animate attributeName="opacity" values="1;0" keyTimes="0;1" dur="1s" begin="-0.4854368932038835s" repeatCount="indefinite"></animate>  </rect></g><g transform="rotate(180 50 50)">  <rect x="50" y="35" rx="1" ry="0.5" width="2" height="6" fill="#797979">    <animate attributeName="opacity" values="1;0" keyTimes="0;1" dur="1s" begin="-0.4045307443365696s" repeatCount="indefinite"></animate>  </rect></g><g transform="rotate(210 50 50)">  <rect x="50" y="35" rx="1" ry="0.5" width="2" height="6" fill="#797979">    <animate attributeName="opacity" values="1;0" keyTimes="0;1" dur="1s" begin="-0.3236245954692557s" repeatCount="indefinite"></animate>  </rect></g><g transform="rotate(240 50 50)">  <rect x="50" y="35" rx="1" ry="0.5" width="2" height="6" fill="#797979">    <animate attributeName="opacity" values="1;0" keyTimes="0;1" dur="1s" begin="-0.24271844660194175s" repeatCount="indefinite"></animate>  </rect></g><g transform="rotate(270 50 50)">  <rect x="50" y="35" rx="1" ry="0.5" width="2" height="6" fill="#797979">    <animate attributeName="opacity" values="1;0" keyTimes="0;1" dur="1s" begin="-0.16181229773462785s" repeatCount="indefinite"></animate>  </rect></g><g transform="rotate(300 50 50)">  <rect x="50" y="35" rx="1" ry="0.5" width="2" height="6" fill="#797979">    <animate attributeName="opacity" values="1;0" keyTimes="0;1" dur="1s" begin="-0.08090614886731393s" repeatCount="indefinite"></animate>  </rect></g><g transform="rotate(330 50 50)">  <rect x="50" y="35" rx="1" ry="0.5" width="2" height="6" fill="#797979">    <animate attributeName="opacity" values="1;0" keyTimes="0;1" dur="1s" begin="0s" repeatCount="indefinite"></animate>  </rect></g></svg>