<svg width="140" height="22" fill="none" xmlns="http://www.w3.org/2000/svg">
  <path d="M13.7 22c-1.9 0-3.7-.2-5.3-.7-1.6-.4-3.1-1-4.4-2-1.2-.9-2.2-2-3-3.4a12 12 0 01-.6-8.3 9.6 9.6 0 013.7-5l2.8-1.4A17.4 17.4 0 0113.7 0a22.7 22.7 0 019.1 2l.5.2v4.4L22 5.7a14.1 14.1 0 00-5.6-2.1c-.8-.2-1.6-.2-2.4-.2-1.8 0-3.4.2-4.7.6A9 9 0 006 5.5c-.9.6-1.5 1.4-1.9 2.3-.4 1-.6 2-.6 3.2 0 1.2.2 2.2.6 3 .4 1 1 1.8 1.8 2.4.8.7 1.9 1.2 3.2 1.6a16.2 16.2 0 006.7.5 36.8 36.8 0 003.7-.5l.6-.1v-4.3h-7.8v-3.5h11.5v10.1l-.6.2a29.8 29.8 0 01-9.6 1.6zM41 22c-1.7 0-3.5-.2-5-.7-1.6-.4-3-1-4.2-2a9.8 9.8 0 01-4-8.3 11.3 11.3 0 011.8-6.3 11.8 11.8 0 014.8-3.6A21.5 21.5 0 0146.2.6c1.6.5 3 1.1 4.3 2 1.2 1 2.1 2.1 2.8 3.5.7 1.4 1 3 1 5a11 11 0 01-1 4.8 9.7 9.7 0 01-2.8 3.5c-1.2.9-2.6 1.6-4.3 2a21 21 0 01-5 .6zm0-18.6c-1.6 0-3 .2-4.2.6-1.2.3-2.2.8-3 1.4-.8.7-1.4 1.4-1.8 2.3-.4 1-.6 2.1-.6 3.3 0 1.2.2 2.4.6 3.3.4 1 1 1.7 1.8 2.3.8.6 1.8 1.2 3 1.5 1.2.4 2.6.5 4.3.5 1.6 0 3-.2 4.3-.5 1.2-.3 2.2-.9 3-1.5.7-.6 1.3-1.4 1.7-2.3.3-1 .6-2 .6-3.3 0-1.2-.3-2.3-.6-3.3-.4-.9-1-1.7-1.8-2.3a8.2 8.2 0 00-3-1.5c-1.2-.3-2.6-.5-4.2-.5zM67.7 22a25.5 25.5 0 01-8.8-1.4l-.6-.2V16l1.4.8c1.1.7 2.4 1.2 3.7 1.4A22 22 0 0073 18c.6-.3 1-.6 1.3-1 .2-.2.4-.6.4-1s-.1-.7-.3-1l-1-.8-1.6-.7-2.2-.6a47.4 47.4 0 00-4.9-1.2l-2.3-.8c-.8-.3-1.5-.7-2-1.1-.7-.5-1.1-1-1.5-1.6-.4-.6-.6-1.4-.6-2.2 0-.8.1-1.5.4-2.1.3-.6.8-1.2 1.3-1.6.5-.5 1-.8 1.7-1 .6-.4 1.3-.6 2-.7A16.7 16.7 0 0168 0a26 26 0 014.3.3l1.9.4 1.8.5.7.1v4.2L75.3 5a12.5 12.5 0 00-2.8-1 21.2 21.2 0 00-4.4-.6c-1.1 0-2.1 0-3 .2l-2 .5c-.4.2-.8.5-1 .8-.2.3-.3.6-.3 1 0 .3 0 .5.2.7l1 .7 1.7.7 2.1.7a56.3 56.3 0 005 1.3l2.3.8 2 1.1 1.5 1.6c.3.7.6 1.5.6 2.3a5.6 5.6 0 01-1.8 4l-2 1.1-2.1.7a19.6 19.6 0 01-4.6.4zM101.3 21.2v-.8a8.2 8.2 0 00-4.2-6.1 15 15 0 00-5.5-1.8l-2.9-.2h-2.1v9H83V0h3.6v9h1.6a15.4 15.4 0 008-2.3 9 9 0 003.2-3.6c.3-.7.5-1.5.6-2.3l.1-.8h3.6v1a10 10 0 01-2.2 5.5 11.7 11.7 0 01-4 3.3l-1 .5 1.5.7a13.4 13.4 0 014.5 3.4 10.6 10.6 0 012.4 5.9v1h-3.6zM119 22a32.8 32.8 0 01-9.2-1.4l-.6-.2v-4l1.3.5a25.2 25.2 0 003.7 1.2 23 23 0 008.5.1c1-.2 2-.6 2.8-1 .8-.4 1.4-1 1.8-1.6.5-.6.6-1.2.6-2v-1.4l-.1.2a13 13 0 01-8.4 3.1c-1.3 0-2.4 0-3.4-.3s-1.9-.6-2.6-1a7.7 7.7 0 01-3.3-3.6 10.8 10.8 0 01-.9-4.4V.4h3.6v5.4c0 1 .2 1.9.4 2.7a4.5 4.5 0 003 3.1c1 .3 2 .5 3.3.5a8.7 8.7 0 005-1.5c.8-.5 1.4-1 2-1.6l1.4-1.8V.4h3.6v13.2a7.2 7.2 0 01-3.8 6.4c-1 .7-2.4 1.1-4 1.5-1.4.3-3 .5-4.7.5zM140 10.3c0 1.2-1 2.2-2.1 2.2a2.1 2.1 0 112.1-2.2zM140 18.8c0 1.2-1 2.2-2.1 2.2a2.1 2.1 0 112.1-2.2z" fill="#fff"/>
</svg>
