<svg viewBox="0 0 20 20" height="20" width="20" fill="currentColor" xmlns="http://www.w3.org/2000/svg">
  <path fill-rule="evenodd" clip-rule="evenodd" d="M13.32 18c.946 0 1.516-.516 1.555-1.469l.477-10.75h1.101a.59.59 0 0 0 0-1.18H13.11v-1.07c0-1.086-.734-1.789-1.914-1.789H8.47c-1.172 0-1.906.703-1.906 1.79v1.07H3.219a.59.59 0 0 0 0 1.18h1.11l.476 10.75c.039.952.601 1.468 1.554 1.468h6.961ZM11.867 4.602H7.812v-1c0-.414.305-.711.75-.711h2.547c.446 0 .758.296.758.71v1ZM7.227 15.96c-.274 0-.477-.234-.485-.555l-.32-8.031c-.008-.32.21-.555.492-.555.266 0 .492.25.508.547l.297 8.031c.008.305-.203.563-.492.563Zm2.609 0c-.274 0-.508-.258-.508-.563v-8.03c0-.298.235-.548.508-.548s.516.25.516.547l-.008 8.031c0 .305-.235.563-.508.563Zm2.61 0c-.29 0-.493-.258-.485-.563l.297-8.03c.008-.298.234-.548.5-.548.281 0 .508.242.5.555l-.328 8.031c-.008.32-.203.555-.485.555Z" />
</svg>
