<svg width="22" height="22" viewBox="0 0 22 22" fill="currentColor" xmlns="http://www.w3.org/2000/svg">
<path fill-rule="evenodd" clip-rule="evenodd" d="M17.9453 10.9727C17.9453 14.7871 14.7871 17.9453 10.9727 17.9453C7.16504 17.9453 4 14.7871 4 10.9727C4 7.16504 7.1582 4 10.9658 4C14.7803 4 17.9453 7.16504 17.9453 10.9727ZM5.16894 10.9727C5.16894 14.1992 7.74609 16.7832 10.9727 16.7832C14.1992 16.7832 16.79 14.1992 16.7832 10.9727C16.7764 7.75293 14.1924 5.16211 10.9658 5.16211C7.73926 5.16211 5.16894 7.75293 5.16894 10.9727ZM10.8291 12.3877C11.1777 12.3877 11.3828 12.1758 11.3828 11.9023V11.8203C11.3828 11.4375 11.6084 11.1982 12.0801 10.8838C12.7432 10.4463 13.2148 10.043 13.2148 9.22949C13.2148 8.08789 12.2031 7.47949 11.0479 7.47949C9.87207 7.47949 9.09961 8.0332 8.9082 8.66211C8.87402 8.77832 8.85352 8.8877 8.85352 9.00391C8.85352 9.30469 9.09277 9.47559 9.31836 9.47559C9.62832 9.47559 9.73064 9.34149 9.86964 9.15932C9.90538 9.11248 9.94354 9.06247 9.98828 9.01074C10.2139 8.63477 10.542 8.40918 11 8.40918C11.6221 8.40918 12.0322 8.75781 12.0322 9.28418C12.0322 9.74902 11.7383 9.97461 11.1436 10.3848C10.6514 10.7266 10.2891 11.0889 10.2891 11.7588V11.8477C10.2891 12.21 10.4805 12.3877 10.8291 12.3877ZM11.5537 13.7207C11.5537 14.1172 11.2119 14.4316 10.8154 14.4316C10.4189 14.4316 10.0771 14.1104 10.0771 13.7207C10.0771 13.3242 10.4121 13.0098 10.8154 13.0098C11.2188 13.0098 11.5537 13.3174 11.5537 13.7207Z" />
</svg>
