<?xml version="1.0" encoding="utf-8"?><svg xmlns="http://www.w3.org/2000/svg" xmlns:xlink="http://www.w3.org/1999/xlink"><symbol fill="currentColor" viewBox="0 0 22 22" id="question-circle" xmlns="http://www.w3.org/2000/svg"><path fill-rule="evenodd" clip-rule="evenodd" d="M17.945 10.973c0 3.814-3.158 6.972-6.972 6.972C7.165 17.945 4 14.787 4 10.973 4 7.165 7.158 4 10.966 4c3.814 0 6.98 3.165 6.98 6.973zm-12.776 0a5.783 5.783 0 005.804 5.81 5.784 5.784 0 005.81-5.81 5.803 5.803 0 00-5.817-5.81 5.781 5.781 0 00-5.797 5.81zm5.66 1.415c.349 0 .554-.212.554-.486v-.082c0-.383.225-.622.697-.936.663-.438 1.135-.841 1.135-1.655 0-1.141-1.012-1.75-2.167-1.75-1.176 0-1.948.554-2.14 1.183a1.19 1.19 0 00-.054.342c0 .3.239.472.464.472.31 0 .413-.135.552-.317.035-.047.074-.097.118-.148.226-.376.554-.602 1.012-.602.622 0 1.032.349 1.032.875 0 .465-.294.69-.888 1.1-.493.343-.855.705-.855 1.375v.089c0 .362.191.54.54.54zm.725 1.333c0 .396-.342.71-.739.71-.396 0-.738-.32-.738-.71 0-.397.335-.711.738-.711.404 0 .739.307.739.71z"/></symbol><symbol fill="currentColor" viewBox="0 0 20 20" id="trash" xmlns="http://www.w3.org/2000/svg"><path fill-rule="evenodd" clip-rule="evenodd" d="M13.32 18c.946 0 1.516-.516 1.555-1.469l.477-10.75h1.101a.59.59 0 000-1.18H13.11v-1.07c0-1.086-.734-1.789-1.914-1.789H8.47c-1.172 0-1.906.703-1.906 1.79v1.07H3.219a.59.59 0 000 1.18h1.11l.476 10.75c.039.952.601 1.468 1.554 1.468h6.961zM11.867 4.602H7.812v-1c0-.414.305-.711.75-.711h2.547c.446 0 .758.296.758.71v1zM7.227 15.96c-.274 0-.477-.234-.485-.555l-.32-8.031c-.008-.32.21-.555.492-.555.266 0 .492.25.508.547l.297 8.031c.008.305-.203.563-.492.563zm2.609 0c-.274 0-.508-.258-.508-.563v-8.03c0-.298.235-.548.508-.548s.516.25.516.547l-.008 8.031c0 .305-.235.563-.508.563zm2.61 0c-.29 0-.493-.258-.485-.563l.297-8.03c.008-.298.234-.548.5-.548.281 0 .508.242.5.555l-.328 8.031c-.008.32-.203.555-.485.555z"/></symbol></svg>