<svg width="264" height="138" fill="none" xmlns="http://www.w3.org/2000/svg">
  <path d="M249.2 113.2a39.4 39.4 0 01-8.7 12.7 27.6 27.6 0 01-11.3 6.5 31 31 0 01-12.8.9c-4.5-.6-9-2-13.7-4-4.6-2.2-8.7-4.7-12-7.7-3.5-3-6.1-6.4-8-10.2-1.8-4-2.7-8-2.6-12.7.2-4.7 1.4-9.6 3.8-15a38.5 38.5 0 0112.4-15.3c2.4-1.7 5.1-3 7.8-3.7a33.8 33.8 0 0117.5 0 51 51 0 0121.3 10.6 29 29 0 0110.4 22.9c-.3 4.6-1.6 9.6-4 15z" fill="#F7F7F7"/>
  <path d="M223.6 86.2c1.5.6 2.1 2 1.5 3.6-.7 1.5-2.2 2-3.7 1.2-1.5-.6-2-2-1.4-3.5.7-1.5 2.2-2 3.6-1.3zm-10.7-4.9c1.4.7 2.1 2.2 1.4 3.6-.7 1.5-2.2 2-3.7 1.3s-2-2-1.3-3.5c.5-1.6 2-2 3.6-1.4zM208 97c-.9.5-2.4 2-3.3 4.1-1.4 3-.2 5 1.5 5.7 2.4 1.1 4.6-.7 5.7-3.1l.8-1.8 2.8 1.3-.8 1.8c-.8 1.7-1 4.4 1 5.3 1.5.7 3 0 4.1-2.2a8 8 0 00.6-4.8l3.3.3c.2 1.6 0 4.3-1.1 6.7-2 4.3-5.4 5.4-8.1 4.2-2.2-1-3.4-3-3.2-6a5.8 5.8 0 01-7.2 2.3c-3.6-1.6-5-5.9-2.7-11 1.1-2.6 2.8-4.4 4.1-5.2l2.6 2.3z" fill="#D9D9D9"/>
  <path d="M121.8 44.8a61 61 0 019.8 21.8c1.4 7 1.2 13.7-.6 20.1a47.7 47.7 0 01-9.3 17.7 74.2 74.2 0 01-16.5 14.7 74.4 74.4 0 01-20 9.7 53 53 0 01-20 2.1 43 43 0 01-19-7c-6-4-11.6-9.7-16.7-17.1a59.8 59.8 0 01-10.4-29c-.2-4.5.3-9 1.5-13.1a52 52 0 0114.2-23.2 79 79 0 0131.6-19.3c6.7-2 13.5-2.6 19.9-2 6.6.9 12.7 3.2 19 7a66.6 66.6 0 0116.5 17.6z" fill="#F7F7F7"/>
  <path d="M67.3 55c2.1-1.4 4.6-1.1 6 1 1.4 2 .8 4.4-1.3 5.9-2.1 1.4-4.4 1-5.8-1.2-1.6-2-1-4.3 1.1-5.7zM52 65.3c2-1.4 4.5-1.1 6 1 1.4 2 .7 4.4-1.4 5.9-2 1.4-4.3 1-5.8-1.2-1.6-2-1-4.3 1.2-5.7zM88.3 105.7c-1.6 1-3.4 1.7-5 1.9-1.5.2-3.1.2-4.7-.5-1.5-.6-3-1.5-4.6-2.7a25.7 25.7 0 01-4-4.8c-1.4-1.9-2.3-3.7-3-5.5a11.8 11.8 0 01.6-9.9 11.8 11.8 0 018.4-5.6c1.6-.2 3.3-.2 4.8.4 1.5.6 3 1.6 4.6 2.7 1.5 1.3 2.8 2.9 4.1 4.8 1.3 2 2.3 3.8 3 5.5a11.8 11.8 0 01-.7 9.9 11 11 0 01-3.5 3.8zm-3.5-5.2c.7-.5 1.2-1 1.8-1.8.7-.7 1-1.4 1.2-2.4.1-1 0-2-.3-3.2-.2-1.2-1-2.7-1.8-4-.7-1-1.3-2-2-2.6l-2-1.5c-.5-.4-1.1-.6-1.8-.7l-1.8-.2c-.5.1-1.2.3-1.6.6l-1.4.7a4 4 0 00-1.3 1c-.2.5-.8.9-1 1.3-.3.5-.4 1.1-.6 1.8 0 .6-.2 1.2 0 2 .2.7.2 1.5.7 2.2.3 1 1 1.9 1.6 2.9 1 1.5 2 2.5 3 3.2a8 8 0 003 1.4c1 .2 1.8.2 2.7-.2.2.4 1 0 1.6-.5z" fill="#D9D9D9"/>
  <path d="M144.2 127.8c-3.1-1-5.7-2.4-7.6-4.2a16.1 16.1 0 01-5.5-13 29.2 29.2 0 015-15c1.6-2 3.3-3.7 5.3-4.9 2-1.2 4.4-2 7-2.1 2.5-.2 5.4.2 8.6 1.2 2 .7 3.8 1.5 5.5 2.6 1.5 1 2.8 2.2 3.9 3.4 1 1.2 2 2.6 2.4 4a18.6 18.6 0 011 9.7 31.3 31.3 0 01-4.7 12.4c-1.6 2-3.3 3.7-5.3 5-2.1 1-4.4 1.9-7 2-2.7.3-5.6 0-8.6-1.1z" fill="#F7F7F7"/>
  <path d="M159.4 119.6c-.3 1-1.2 1.5-2.3 1.2-1-.4-1.4-1.3-1-2.4.3-1 1.2-1.4 2.2-1 1 .2 1.5 1.2 1.1 2.2zm2.5-7.5c-.3 1-1.2 1.6-2.3 1.2-1-.3-1.4-1.3-1-2.3.3-1 1.2-1.4 2.2-1 1 .3 1.5 1.2 1.1 2.1zM154.3 105.7l-10.8 14.1-1.8-.6 10.8-14.1 1.8.6z" fill="#D9D9D9"/>
</svg>
