<svg xmlns="http://www.w3.org/2000/svg" fill="none" viewBox="0 0 40 42" width="40" height="42"><defs/><path fill="#0062FF" d="M20.2.3c3.3 0 6.2.5 8.7 1.6a16.5 16.5 0 019.5 10.8 30 30 0 010 16.1 16.5 16.5 0 01-9.5 10.8c-2.4 1-5.3 1.6-8.7 1.6-2.2 0-4.2-.2-6.1-.7a24 24 0 01-4.9-2c-1.4-.9-2.7-1.9-3.7-3.2a19 19 0 01-4.1-9A32.1 32.1 0 012 12.8 16.5 16.5 0 0111.5 2C13.9.8 16.8.3 20.2.3z"/><path fill="#fff" d="M14 14.6c0-1.1.7-1.8 1.8-1.8s1.8.8 1.8 1.8-.7 1.8-1.8 1.8c-1.1.1-1.8-.7-1.8-1.8zm0 7.9c0-1.1.7-1.8 1.8-1.8s1.8.8 1.8 1.8-.7 1.8-1.8 1.8c-1.1.1-1.8-.7-1.8-1.8zM22 14.2c.6-2.1 1.7-4.5 2.5-6l1.8-.2c-.6 1.7-1.2 4.1-1.5 5.9l-2.8.3zM27.5 26.9c1.5-2.2 2.6-5.3 2.6-9.5s-1.1-7.2-2.6-9.5h2.1c1.4 1.9 2.8 4.9 2.8 9.5s-1.5 7.6-2.8 9.5h-2.1z"/></svg>
