<svg xmlns="http://www.w3.org/2000/svg" fill="none" viewBox="0 0 47 50" width="47" height="50"><defs/><path fill="#C8EA00" d="M23.2.5c4 0 7.5.6 10.4 1.9A20.2 20.2 0 0145 15.3a33.2 33.2 0 010 19.3 20.2 20.2 0 01-11.4 13 25.4 25.4 0 01-10.4 1.9A27.5 27.5 0 0110 46.2a18.2 18.2 0 01-7.6-8.8A27.2 27.2 0 01-.1 24.9c0-3.4.5-6.6 1.4-9.6A19.8 19.8 0 0112.7 2.4c3-1.3 6.5-1.9 10.5-1.9z"/><path fill="#000" d="M13.9 18.2c0-1.1.7-1.8 1.8-1.8s1.8.8 1.8 1.8-.7 1.8-1.8 1.8-1.8-.8-1.8-1.8zm0 7.8c0-1.1.7-1.8 1.8-1.8s1.8.8 1.8 1.8-.7 1.8-1.8 1.8c-1.1.1-1.8-.7-1.8-1.8zM19.9 30.4c1.5-2.2 2.6-5.3 2.6-9.5s-1.1-7.2-2.6-9.5H22c1.4 1.9 2.8 4.9 2.8 9.5s-1.5 7.6-2.8 9.5h-2.1z"/></svg>
