<svg xmlns="http://www.w3.org/2000/svg" fill="none" viewBox="0 0 46 49" width="46" height="49"><defs/><path fill="#C8EA00" d="M22.8.4c3.9 0 7.3.6 10.2 1.8 2.9 1.2 5.2 2.9 7.1 5.1 1.9 2.2 3.2 4.7 4.1 7.6a32 32 0 011.3 9.5 32 32 0 01-1.3 9.5c-.9 2.9-2.3 5.5-4.1 7.7a18.5 18.5 0 01-7.1 5.1 26.6 26.6 0 01-10.2 1.8 26 26 0 01-12.9-3.3c-1.7-1-3.2-2.3-4.4-3.7A22.6 22.6 0 01.6 30.8a34.2 34.2 0 01.7-16A19.6 19.6 0 0112.5 2.1C15.4 1 18.8.4 22.8.4z"/><path fill="#000" d="M13.3 23.6c0-1.1.7-1.9 1.8-1.9s1.8.8 1.8 1.9c0 1.1-.7 1.8-1.8 1.8s-1.8-.8-1.8-1.8zm0 7.9c0-1.1.7-1.9 1.8-1.9s1.8.8 1.8 1.9c0 1.1-.7 1.8-1.8 1.8-1.1.1-1.8-.7-1.8-1.8zM24.2 30.1c.6.4 2 .9 3.5.9 2.2 0 3.1-1.3 3.1-2.5 0-1.8-1.7-2.6-3.5-2.6H26v-2.1h1.3c1.3 0 3-.6 3-2.1 0-1.1-.8-1.9-2.5-1.9-1.2 0-2.5.5-3.1 1l-.7-2.1c.9-.6 2.6-1.2 4.4-1.2 3.2 0 4.8 1.8 4.8 3.8 0 1.6-.9 2.9-2.8 3.6 1.9.3 3.4 1.8 3.4 3.8 0 2.6-2.2 4.7-6 4.7-1.9 0-3.5-.5-4.3-1.1l.7-2.2z"/></svg>
