<svg xmlns="http://www.w3.org/2000/svg" fill="none" viewBox="0 0 39 41" width="39" height="41"><defs/><path fill="#FF653B" d="M19.5 0c3.3 0 6.2.5 8.7 1.6a16.5 16.5 0 019.5 10.8 30 30 0 010 16.1 16.5 16.5 0 01-9.5 10.8c-2.4 1-5.3 1.6-8.7 1.6-2.2 0-4.2-.2-6.1-.7a24 24 0 01-4.9-2c-1.4-.9-2.7-1.9-3.7-3.2a19 19 0 01-4.1-9 32.1 32.1 0 01.6-13.5 16.5 16.5 0 019.5-10.8C13.2.5 16.1 0 19.5 0z"/><path fill="#000" d="M14.8 15c0-1.1.7-1.9 1.8-1.9s1.8.8 1.8 1.9c0 1.1-.7 1.8-1.8 1.8-1 .1-1.8-.7-1.8-1.8zm0 8c0-1.1.7-1.9 1.8-1.9s1.8.8 1.8 1.9c0 1.1-.7 1.8-1.8 1.8-1 0-1.8-.8-1.8-1.8zM24.4 26.6v-2.3c-1.5 0-3-.5-3.8-1l.6-2.2a8 8 0 003.7 1c1.5 0 2.5-.7 2.5-1.8s-.8-1.7-2.6-2.4c-2.5-.9-4.1-2-4.1-4.2 0-2 1.4-3.6 3.8-4V7.4h1.9v2.2a7 7 0 013.3.8l-.6 2.2c-.6-.3-1.6-.8-3.2-.8-1.7 0-2.2.9-2.2 1.7 0 1 .8 1.5 2.9 2.3 2.6 1 3.8 2.3 3.8 4.4 0 2-1.4 3.8-4 4.2v2.4h-2v-.2z"/></svg>
