<svg xmlns="http://www.w3.org/2000/svg" fill="none" viewBox="0 0 47 49" width="47" height="49"><defs/><path fill="#0062FF" d="M23.7 0c4 0 7.5.6 10.4 1.9a20.2 20.2 0 0111.4 12.9 33.2 33.2 0 010 19.3 20.2 20.2 0 01-11.4 13A25.4 25.4 0 0123.7 49a27.5 27.5 0 01-13.2-3.3 18.2 18.2 0 01-7.6-8.8A27.2 27.2 0 01.4 24.4c0-3.4.5-6.6 1.4-9.6A19.8 19.8 0 0113.2 1.9C16.2.6 19.7 0 23.7 0z"/><path fill="#fff" d="M24.9 25.2c0-1.1.7-1.9 1.8-1.9s1.8.8 1.8 1.9c0 1.1-.7 1.8-1.8 1.8s-1.8-.8-1.8-1.8zm0 7.9c0-1.1.7-1.9 1.8-1.9s1.8.8 1.8 1.9c0 1.1-.7 1.8-1.8 1.8-1.1.1-1.8-.7-1.8-1.8zM36.7 18.3a16.9 16.9 0 00-2.6 9.6 18 18 0 002.6 9.6h-2.1c-1.4-1.9-2.9-5-2.9-9.6s1.5-7.7 2.9-9.6h2.1z"/></svg>
