<svg xmlns="http://www.w3.org/2000/svg" fill="none" viewBox="0 0 39 42" width="39" height="42"><defs/><path fill="#0062FF" d="M19.5.3c3.3 0 6.2.5 8.7 1.6a16.5 16.5 0 019.5 10.8 30 30 0 010 16.1 16.5 16.5 0 01-9.5 10.8c-2.4 1-5.3 1.6-8.7 1.6-2.2 0-4.2-.2-6.1-.7a24 24 0 01-4.9-2c-1.4-.9-2.7-1.9-3.7-3.2a19 19 0 01-4.1-9 32.1 32.1 0 01.6-13.5A16.5 16.5 0 0110.8 2C13.2.8 16.1.3 19.5.3z"/><path fill="#fff" d="M10.1 17.1c0-1.1.7-1.8 1.8-1.8s1.8.8 1.8 1.8-.7 1.8-1.8 1.8-1.8-.8-1.8-1.8zm0 7.8c0-1.1.7-1.8 1.8-1.8s1.8.8 1.8 1.8-.7 1.8-1.8 1.8c-1.1.1-1.8-.7-1.8-1.8zM19.9 11.7h-2.3v15.8h2.3V11.7z"/></svg>
