<svg xmlns="http://www.w3.org/2000/svg" fill="none" viewBox="0 0 40 41" width="40" height="41"><defs/><path fill="#FF653B" d="M20.2 0c3.3 0 6.2.5 8.7 1.6a16.5 16.5 0 019.5 10.8 30 30 0 010 16.1 16.5 16.5 0 01-9.5 10.8c-2.4 1-5.3 1.6-8.7 1.6-2.2 0-4.2-.2-6.1-.7a24 24 0 01-4.9-2c-1.4-.9-2.7-1.9-3.7-3.2a19 19 0 01-4.1-9A32.1 32.1 0 012 12.5a16.5 16.5 0 019.5-10.8C13.9.5 16.8 0 20.2 0z"/><path fill="#000" d="M10.2 15c0-1.1.7-1.9 1.8-1.9s1.8.8 1.8 1.9c0 1.1-.7 1.8-1.8 1.8-1.1.1-1.8-.7-1.8-1.8zm0 8c0-1.1.7-1.9 1.8-1.9s1.8.8 1.8 1.9c0 1.1-.7 1.8-1.8 1.8s-1.8-.8-1.8-1.8zM20.2 17c1.6 0 1.8-.9 1.8-1.7l-.2-1.9-.2-1.9c0-2.2 1.4-3.2 3.5-3.2h.7V10h-.4c-1.2 0-1.6.7-1.6 1.8l.1 1.5.1 1.7c0 1.7-.7 2.4-1.9 2.7 1.2.3 1.9 1 1.9 2.7l-.1 1.7-.1 1.5c0 1.2.5 1.9 1.6 1.9h.4v1.7h-.7c-2 0-3.5-.9-3.5-3.2l.2-1.9.2-1.9c0-.7-.2-1.6-1.8-1.7V17zM29.2 24.1c.7-1.2 1.2-3.1 1.2-5.5s-.6-4.3-1.2-5.5h1.7c.7 1 1.5 2.9 1.5 5.5s-.8 4.5-1.5 5.5h-1.7zM20.2 17h-3.1v1.5h3.1V17z"/></svg>
