<svg xmlns="http://www.w3.org/2000/svg" fill="none" viewBox="0 0 40 42" width="40" height="42"><defs/><path fill="#FF653B" d="M20.2.5c3.3 0 6.2.5 8.7 1.6a16.5 16.5 0 019.5 10.8 30 30 0 010 16.1 16.5 16.5 0 01-9.5 10.8c-2.4 1-5.3 1.6-8.7 1.6-2.2 0-4.2-.2-6.1-.7a24 24 0 01-4.9-2c-1.4-.9-2.7-1.9-3.7-3.2a19 19 0 01-4.1-9A32.1 32.1 0 012 13a16.5 16.5 0 019.5-10.8C14 1.1 16.9.5 20.2.5z"/><path fill="#000" d="M8.2 13.4c0-1.1.7-1.9 1.8-1.9s1.8.8 1.8 1.9c0 1.1-.7 1.8-1.8 1.8-1.1.1-1.9-.7-1.8-1.8zm0 8c0-1.1.7-1.9 1.8-1.9s1.8.8 1.8 1.9c0 1.1-.7 1.8-1.8 1.8s-1.9-.8-1.8-1.8zM17.6 25.2L23.4 8h2l-5.8 17.2h-2z"/></svg>
