<svg xmlns="http://www.w3.org/2000/svg" fill="none" viewBox="0 0 40 42" width="40" height="42"><defs/><path fill="#C8EA00" d="M20.2.3c3.3 0 6.2.5 8.7 1.6a16.5 16.5 0 019.5 10.8 30 30 0 010 16.1 16.5 16.5 0 01-9.5 10.8c-2.4 1-5.3 1.6-8.7 1.6-2.2 0-4.2-.2-6.1-.7a24 24 0 01-4.9-2c-1.4-.9-2.7-1.9-3.7-3.2a19 19 0 01-4.1-9A32.1 32.1 0 012 12.8 16.5 16.5 0 0111.5 2C14 .8 16.9.3 20.2.3z"/><path fill="#000" d="M8.9 9.7c0-1.1.7-1.9 1.8-1.9s1.8.8 1.8 1.9c0 1.1-.7 1.8-1.8 1.8-1 .1-1.8-.7-1.8-1.8zm0 8c0-1.1.7-1.9 1.8-1.9s1.8.8 1.8 1.9c0 1.1-.7 1.8-1.8 1.8-1 0-1.8-.8-1.8-1.8zM28.9 19.3c0-.5-.2-1-.4-1.4l-.8-1-1.1-.7-1.2-.4a5 5 0 00-1.2-.2l-1.1-.1h-.8v3.9h-2.6V9.7h2.6v3.7h.5l1.1-.1 1.2-.3 1.1-.5a3.6 3.6 0 001.7-1.7l.4-1.2H31c0 .5-.1 1-.3 1.4l-.6 1.1-.8.9-.9.6-.9.4-.8.3 1 .2 1 .4 1 .7.9.9.6 1.2c.2.4.3 1 .3 1.5h-2.6v.1z"/></svg>
