<svg xmlns="http://www.w3.org/2000/svg" fill="none" viewBox="0 0 47 50" width="47" height="50"><defs/><path fill="#FF653B" d="M23.2.6c4 0 7.5.6 10.4 1.9A20.2 20.2 0 0145 15.4a33.2 33.2 0 010 19.3 20.2 20.2 0 01-11.4 13 25.4 25.4 0 01-10.4 1.9A27.5 27.5 0 0110 46.3a18.2 18.2 0 01-7.6-8.8A27.2 27.2 0 010 25c0-3.4.5-6.6 1.4-9.6A19.8 19.8 0 0112.8 2.5C15.7 1.2 19.2.6 23.2.6z"/><path fill="#000" d="M15.8 34.5c0-1.1.7-1.9 1.8-1.9s1.8.8 1.8 1.9c0 1.1-.7 1.8-1.8 1.8s-1.8-.8-1.8-1.8zm0-8c0-1.1.7-1.9 1.8-1.9s1.8.8 1.8 1.9c0 1.1-.7 1.8-1.8 1.8-1.1.1-1.8-.7-1.8-1.8zM23.2 23.6c.9-.2 2.2-.3 3.9-.3 1.9 0 3.2.4 4.1 1.1.8.7 1.4 1.8 1.4 3.1s-.4 2.4-1.2 3.2c-1 1-2.6 1.5-4.4 1.5l-1.2-.1v5.3h-2.5V23.6h-.1zm2.5 6.5l1.2.1c1.9 0 3.1-.9 3.1-2.6 0-1.5-1.1-2.4-2.8-2.4l-1.5.1v4.8z"/></svg>
