<svg xmlns="http://www.w3.org/2000/svg" fill="none" viewBox="0 0 47 50" width="47" height="50"><defs/><path fill="#FF653B" d="M23.7.6c4 0 7.5.6 10.4 1.9a20.2 20.2 0 0111.4 12.9 33.2 33.2 0 010 19.3 20.2 20.2 0 01-11.4 13 25.4 25.4 0 01-10.4 1.9 27.5 27.5 0 01-13.2-3.3 18.2 18.2 0 01-7.6-8.8A27.2 27.2 0 01.4 25c0-3.4.5-6.6 1.4-9.6A19.8 19.8 0 0113.2 2.5c3-1.3 6.5-1.9 10.5-1.9z"/><path fill="#000" d="M16.5 23c0-1.1.7-1.9 1.8-1.9s1.8.8 1.8 1.9c0 1.1-.7 1.8-1.8 1.8-1.1.1-1.8-.7-1.8-1.8zm0 8c0-1.1.7-1.9 1.8-1.9s1.8.8 1.8 1.9c0 1.1-.7 1.8-1.8 1.8-1.1.1-1.8-.7-1.8-1.8zM31.1 16.4v18.8h-4.6v-1.6H29V18.1h-2.5v-1.7h4.6z"/></svg>
