<svg xmlns="http://www.w3.org/2000/svg" fill="none" viewBox="0 0 47 50" width="47" height="50"><defs/><path fill="#C8EA00" d="M23.7.5c4 0 7.5.6 10.4 1.9a20.2 20.2 0 0111.4 12.9 33.2 33.2 0 010 19.3 20.2 20.2 0 01-11.4 13 25.4 25.4 0 01-10.4 1.9 27.5 27.5 0 01-13.2-3.3 18.2 18.2 0 01-7.6-8.8A27.2 27.2 0 01.4 24.9c0-3.4.5-6.6 1.4-9.6A19.8 19.8 0 0113.2 2.4c3-1.3 6.5-1.9 10.5-1.9z"/><path fill="#000" d="M15.6 14.8c0-1.1.7-1.8 1.8-1.8s1.8.8 1.8 1.8-.7 1.8-1.8 1.8c-1.1.1-1.8-.7-1.8-1.8zm0 7.9c0-1.1.7-1.8 1.8-1.8s1.8.8 1.8 1.8-.7 1.8-1.8 1.8c-1.1.1-1.8-.7-1.8-1.8zM31.6 25.6c-1.2.6-2.2.8-3.6.8a6 6 0 01-6.2-6.3c0-4.1 2.9-7.6 7.4-7.6 3.5 0 5.9 2.4 5.9 5.8 0 3-1.7 4.8-3.7 4.8-.9 0-1.6-.5-1.6-1.6h-.1c-.7 1.1-1.6 1.6-2.7 1.6-1.2 0-2.2-1-2.2-2.6 0-2.5 1.9-4.7 4.7-4.7.9 0 1.8.2 2.3.5l-.6 3.7c-.2 1.3-.1 1.9.5 2 .9 0 2-1.2 2-3.5 0-2.7-1.7-4.8-4.8-4.8-3.1 0-5.8 2.5-5.8 6.4 0 3.3 2.2 5.3 5.1 5.3a6 6 0 003-.7l.4.9zm-1.4-8.4l-.8-.1c-1.5 0-2.7 1.5-2.7 3.2 0 .8.4 1.4 1.1 1.4.9 0 1.8-1.2 2-2.4l.4-2.1z"/></svg>
