<svg xmlns="http://www.w3.org/2000/svg" fill="none" viewBox="0 0 40 42" width="40" height="42"><defs/><path fill="#FF653B" d="M20.2.8c3.3 0 6.2.5 8.7 1.6a16.5 16.5 0 019.5 10.8 30 30 0 010 16.1 16.5 16.5 0 01-9.5 10.8c-2.4 1-5.3 1.6-8.7 1.6-2.2 0-4.2-.2-6.1-.7a24 24 0 01-4.9-2c-1.4-.9-2.7-1.9-3.7-3.2a19 19 0 01-4.1-9A32.1 32.1 0 012 13.3a16.5 16.5 0 019.5-10.8C14 1.3 16.9.8 20.2.8z"/><path fill="#000" d="M11 17.8c0-1.1.7-1.9 1.8-1.9s1.8.8 1.8 1.9c0 1.1-.7 1.8-1.8 1.8-1 .1-1.8-.7-1.8-1.8zm0 8c0-1.1.7-1.9 1.8-1.9s1.8.8 1.8 1.9c0 1.1-.7 1.8-1.8 1.8-1 0-1.8-.8-1.8-1.8zM23.6 22.5v-.6c-.1-1.2.3-2.5 1.4-3.9.9-1.1 1.5-1.9 1.5-2.8 0-1-.6-1.7-2-1.7-.8 0-1.8.3-2.4.7l-.7-2.1c.8-.5 2.2-1 3.7-1 2.9 0 4.3 1.7 4.3 3.6 0 1.7-1 2.9-2 4a4.9 4.9 0 00-1.3 3.2v.5h-2.5v.1zm-.6 3.3c0-1.1.7-1.9 1.8-1.9s1.8.8 1.8 1.9c0 1-.7 1.8-1.8 1.8-1 0-1.8-.8-1.8-1.8z"/></svg>
