<svg xmlns="http://www.w3.org/2000/svg" fill="none" viewBox="0 0 40 42" width="40" height="42"><defs/><path fill="#C8EA00" d="M20.2.8c3.3 0 6.2.5 8.7 1.6a16.5 16.5 0 019.5 10.8 30 30 0 010 16.1 16.5 16.5 0 01-9.5 10.8c-2.4 1-5.3 1.6-8.7 1.6-2.2 0-4.2-.2-6.1-.7a24 24 0 01-4.9-2c-1.4-.9-2.7-1.9-3.7-3.2a19 19 0 01-4.1-9A32.1 32.1 0 012 13.3a16.5 16.5 0 019.5-10.8C13.9 1.3 16.8.8 20.2.8z"/><path fill="#000" d="M13 20.8c0-1.1.7-1.8 1.8-1.8s1.8.8 1.8 1.8-.7 1.8-1.8 1.8c-1 0-1.8-.8-1.8-1.8zm0 7.8c0-1.1.7-1.8 1.8-1.8s1.8.8 1.8 1.8-.7 1.8-1.8 1.8c-1 .1-1.8-.7-1.8-1.8zM28.6 24.2c-1.6 0-1.8 1-1.8 1.7l.2 1.9.2 1.9c0 2.3-1.5 3.2-3.5 3.2H23v-1.7h.4c1.2 0 1.6-.7 1.6-1.9l-.1-1.5-.1-1.7c0-1.7.7-2.4 1.9-2.7-1.2-.3-1.9-1-1.9-2.6l.1-1.7.1-1.5c0-1.1-.4-1.8-1.6-1.8H23v-1.7h.7c2.1 0 3.5.9 3.5 3.1l-.2 1.9-.2 1.9c0 .8.2 1.6 1.8 1.7v1.5z"/></svg>
