<svg xmlns="http://www.w3.org/2000/svg" fill="none" viewBox="0 0 46 49" width="46" height="49"><defs/><path fill="#C8EA00" d="M22.8 0c3.9 0 7.3.6 10.2 1.8 2.9 1.2 5.2 2.9 7.1 5.1 1.9 2.2 3.2 4.7 4.1 7.6a32 32 0 011.3 9.5 32 32 0 01-1.3 9.5c-.9 2.9-2.3 5.5-4.1 7.7a18.5 18.5 0 01-7.1 5.1 26.6 26.6 0 01-10.2 1.8 26 26 0 01-12.9-3.3c-1.7-1-3.2-2.3-4.4-3.7A22.6 22.6 0 01.6 30.4a34.2 34.2 0 01.7-16A19.6 19.6 0 0112.5 1.7C15.4.6 18.8 0 22.8 0z"/><path fill="#000" d="M13.3 22c0-1.1.7-1.9 1.8-1.9s1.8.8 1.8 1.9c0 1.1-.7 1.8-1.8 1.8-1.1.1-1.8-.7-1.8-1.8zm0 8c0-1.1.7-1.9 1.8-1.9s1.8.8 1.8 1.9c0 1.1-.7 1.8-1.8 1.8-1.1.1-1.8-.7-1.8-1.8zM36.6 26.8a5 5 0 01-.5 2.2 4 4 0 01-1.3 1.6c-.6.4-1.3.7-2.1 1-.8.2-1.7.3-2.7.3-1 0-1.9-.1-2.7-.3a5.1 5.1 0 01-3.4-2.6 5 5 0 010-4.4 4 4 0 011.3-1.6c.6-.4 1.3-.7 2.1-1 .8-.2 1.7-.3 2.7-.3 1 0 1.9.1 2.7.3a5.1 5.1 0 013.4 2.6c.3.6.5 1.3.5 2.2zm-2.7 0l-.2-1.1a2 2 0 00-.6-1c-.3-.3-.7-.5-1.2-.7-.5-.2-1.2-.3-1.9-.3l-1.4.1-1 .3-.7.5-.5.6-.2.7-.1.7.1.7.2.7.5.6.7.5c.3.1.6.3 1 .3l1.4.1a5 5 0 001.9-.3c.5-.2.9-.4 1.2-.7.3-.3.5-.6.6-1 .2 0 .2-.4.2-.7z"/></svg>
