<svg xmlns="http://www.w3.org/2000/svg" fill="none" viewBox="0 0 39 42" width="39" height="42"><defs/><path fill="#C8EA00" d="M19.5.8c3.3 0 6.2.5 8.7 1.6a16.5 16.5 0 019.5 10.8 30 30 0 010 16.1 16.5 16.5 0 01-9.5 10.8c-2.4 1-5.3 1.6-8.7 1.6-2.2 0-4.2-.2-6.1-.7a24 24 0 01-4.9-2c-1.4-.9-2.7-1.9-3.7-3.2a19 19 0 01-4.2-9.2 32.1 32.1 0 01.6-13.5 16.5 16.5 0 019.5-10.8c2.5-1 5.4-1.5 8.8-1.5z"/><path fill="#000" d="M4.8 14.4c0-1.1.7-1.8 1.8-1.8s1.8.8 1.8 1.8-.7 1.8-1.8 1.8c-1 .1-1.8-.7-1.8-1.8zm0 7.9c0-1.1.7-1.8 1.8-1.8s1.8.8 1.8 1.8-.7 1.8-1.8 1.8c-1 0-1.8-.7-1.8-1.8zM22.2 18.1c0 4.2-2.9 6.1-5.9 6.1-3.2 0-5.7-2.2-5.7-5.9s2.5-6 5.9-6c3.5-.1 5.7 2.3 5.7 5.8zm-8.6.1c0 2.2 1.1 3.9 2.8 3.9 1.7 0 2.8-1.6 2.8-3.9 0-1.8-.8-3.8-2.8-3.8-1.9-.1-2.8 1.9-2.8 3.8z"/></svg>
