<svg xmlns="http://www.w3.org/2000/svg" fill="none" viewBox="0 0 47 49" width="47" height="49"><defs/><path fill="#0062FF" d="M23.2 0c4 0 7.5.6 10.4 1.9A20.2 20.2 0 0145 14.8a33.2 33.2 0 010 19.3 20.2 20.2 0 01-11.4 13A25.4 25.4 0 0123.2 49 27.5 27.5 0 0110 45.7a18.2 18.2 0 01-7.6-8.8A28.8 28.8 0 010 24.4c0-3.4.5-6.6 1.4-9.6A19.8 19.8 0 0112.8 1.9C15.7.6 19.2 0 23.2 0z"/><path fill="#fff" d="M10.6 36.6c0-1.1.7-1.9 1.8-1.9s1.8.8 1.8 1.9c0 1.1-.7 1.8-1.8 1.8s-1.8-.8-1.8-1.8zm0-8c0-1.1.7-1.9 1.8-1.9s1.8.8 1.8 1.9c0 1.1-.7 1.8-1.8 1.8-1.1.1-1.8-.7-1.8-1.8zM16.7 25.9c1-.2 2.3-.3 3.6-.3 2.3 0 3.9.5 5 1.4 1.2 1 1.9 2.4 1.9 4.5 0 2.2-.8 3.8-1.9 4.9-1.2 1.1-3.2 1.7-5.6 1.7l-3-.2v-12zm2.2 10.4l1.3.1c2.9 0 4.7-1.6 4.7-4.7 0-2.7-1.6-4.3-4.4-4.3l-1.5.1v8.8h-.1z"/></svg>
